<?xml version="1.0" encoding="utf-8"?>
<!-- Generator: Adobe Illustrator 28.0.0, SVG Export Plug-In . SVG Version: 6.00 Build 0)  -->
<svg version="1.1" id="Слой_1" xmlns="http://www.w3.org/2000/svg" xmlns:xlink="http://www.w3.org/1999/xlink" x="0px" y="0px"
	 viewBox="0 0 1000 1000" style="enable-background:new 0 0 1000 1000;" xml:space="preserve">
<style type="text/css">
	.st0{fill:#0077FF;}
	.st1{fill:#FFFFFF;}
</style>
<path class="st0" d="M479.6,1000.4h41.7c226.7,0,339.6,0,409.6-70c69.6-70,69.6-183.3,69.6-409.2v-42.5c0-225,0-338.3-69.6-408.3
	c-70-70-183.3-70-409.6-70h-41.7c-226.7,0-339.6,0-409.6,70C0.5,140.4,0.5,253.8,0.5,479.6v42.5c0,225,0,338.3,70,408.3
	S253.8,1000.4,479.6,1000.4z"/>
<path class="st1" d="M532.6,720.8c-227.9,0-357.9-156.2-363.3-416.2h114.2c3.8,190.8,87.9,271.7,154.6,288.3V304.6h107.5v164.6
	c65.8-7.1,135-82.1,158.3-164.6h107.5c-17.8,86.5-70.8,161.7-146.3,207.5C749.4,554,811.7,630,836.3,720.8H718
	c-22.3-79.8-90.3-138.4-172.5-148.8v148.8C545.5,720.8,532.6,720.8,532.6,720.8z"/>
</svg>
